<svg width="596" height="299" viewBox="0 0 596 299" fill="none" xmlns="http://www.w3.org/2000/svg">
<g clip-path="url(#clip0_463_2293)">
<path d="M196.276 298.772C178.292 298.772 160.335 298.45 142.405 297.806C116.785 296.885 90.2925 295.934 65.669 282.277C48.4437 272.725 33.1881 257.398 21.5518 237.954C13.7743 224.775 8.07144 210.477 4.64364 195.563C-1.75053 168.409 -1.53274 140.118 5.27871 113.066C7.6657 103.791 10.9563 94.7728 15.1034 86.1401C33.0603 48.9548 65.8125 23.9933 104.962 17.6565C105.286 17.6146 105.612 17.6076 105.937 17.6357C106.113 17.6451 106.289 17.6552 106.468 17.6477L106.698 17.5745C107.289 17.3693 107.895 17.2136 108.512 17.1092C168.891 8.12045 232.72 26.3078 293.095 69.7035C339.777 103.262 401.643 121.332 482.23 124.948L483.374 125.007C505.807 126.296 527.507 135.545 546.13 151.755C564.511 167.755 578.312 189.101 586.041 213.487C586.992 216.46 587.863 219.555 588.63 222.685C589.345 225.594 589.294 228.639 588.484 231.522C587.673 234.406 586.13 237.031 584.004 239.141V239.147L583.804 239.353C583.32 239.834 582.812 240.294 582.292 240.723L581.681 241.227C576.531 245.469 572.464 248.821 567.595 251.423C564.349 253.148 560.895 254.451 557.319 255.303C537.681 260.091 517.738 264.53 498.045 268.497C459.799 276.209 420.546 282.57 381.375 287.404C319.966 294.976 258.15 298.773 196.276 298.772ZM105.479 18.9527C105.359 18.9516 105.239 18.9598 105.12 18.9771C66.3363 25.2547 33.8941 49.9711 16.1152 86.7883C12.0091 95.3354 8.75101 104.265 6.38775 113.448C-0.361622 140.259 -0.576706 168.3 5.76059 195.212C9.15484 209.983 14.8024 224.144 22.5048 237.198C34.0272 256.451 49.1268 271.624 66.1715 281.076C90.574 294.611 116.941 295.558 142.441 296.473C222.194 299.322 302.047 295.847 381.251 286.079C420.397 281.248 459.625 274.891 497.845 267.184C517.526 263.22 537.454 258.784 557.079 253.999C560.569 253.168 563.939 251.897 567.108 250.214C571.878 247.664 575.907 244.345 581.007 240.143L581.619 239.64C582.065 239.271 582.504 238.876 582.924 238.466L583.044 238.34C587.236 234.115 588.866 228.541 587.516 223.048V223.047C586.757 219.95 585.895 216.889 584.954 213.946C569.165 164.129 528.321 128.924 483.318 126.339L482.181 126.279C445.37 124.627 413.157 120.052 383.707 112.29C348.55 103.024 317.858 89.0761 292.482 70.8341C232.337 27.6046 168.775 9.48498 108.659 18.4311C108.097 18.5279 107.545 18.6712 107.007 18.8593L106.592 18.9755C106.356 18.986 106.12 18.9832 105.884 18.967C105.745 18.9599 105.611 18.9527 105.479 18.9527Z" fill="#C4F3EE"/>
<path d="M186.165 97.3434C184.5 95.7461 182.797 86.8386 180.672 85.9343C182.261 89.4457 181.107 90.3754 181.099 94.2291C181.119 96.4174 180.863 98.5994 180.338 100.724H144.332V72.6238C144.332 70.0989 144.829 67.5987 145.795 65.2661C146.762 62.9334 148.178 60.8138 149.963 59.0285C151.748 57.2432 153.868 55.8269 156.201 54.8608C158.533 53.8946 161.034 53.3973 163.558 53.3974C164.522 53.4162 165.48 53.5564 166.408 53.8146C169.503 54.6502 172.324 56.2849 174.587 58.5547C176.851 60.8246 178.478 63.6498 179.305 66.7469C182.05 76.7798 186.415 93.4804 186.165 97.3434Z" fill="#030303"/>
<path d="M146.446 131.912L146.464 110.009L133.589 111.16L138.133 124.974L136.006 159.695C134.975 159.926 134.033 160.453 133.296 161.21C132.559 161.968 132.058 162.923 131.854 163.961C131.65 164.998 131.753 166.072 132.149 167.052C132.546 168.032 133.218 168.875 134.086 169.479C134.953 170.084 135.978 170.422 137.034 170.454C138.091 170.486 139.134 170.21 140.036 169.66C140.938 169.109 141.661 168.308 142.116 167.354C142.571 166.4 142.738 165.334 142.598 164.286L146.446 131.912Z" fill="#FFB6B6"/>
<path d="M171.783 288.426L176.984 288.426L179.458 268.363H171.781L171.783 288.426Z" fill="#FFB6B6"/>
<path d="M170.021 285.86L178.244 285.37V288.892L186.061 294.291C186.447 294.558 186.738 294.941 186.891 295.384C187.044 295.828 187.051 296.309 186.911 296.757C186.772 297.205 186.493 297.596 186.115 297.875C185.737 298.153 185.28 298.303 184.81 298.303H175.021L173.334 294.818L172.675 298.303H168.984L170.021 285.86Z" fill="#030303"/>
<path d="M141.708 288.426L146.91 288.426L149.384 268.363H141.707L141.708 288.426Z" fill="#FFB6B6"/>
<path d="M139.945 285.86L148.167 285.37V288.892L155.985 294.291C156.371 294.558 156.662 294.941 156.815 295.384C156.968 295.828 156.975 296.309 156.835 296.757C156.696 297.205 156.416 297.596 156.038 297.875C155.66 298.153 155.204 298.303 154.734 298.303H144.945L143.258 294.818L142.599 298.303H138.908L139.945 285.86Z" fill="#030303"/>
<path d="M167.15 86.3569L156.375 86.5682L148.769 94.5967L142.671 95.4911C139.913 95.8957 137.377 97.2347 135.487 99.2845C133.597 101.334 132.468 103.971 132.289 106.753L133.345 112.555H139.684L143.351 134.085C141.925 137.718 141.828 140.585 144.754 141.712L153.839 158.825L180.672 146.783C182.033 144.443 182.469 142.093 181.078 139.808L182.996 106.851H189.446C189.446 100.687 187.361 95.4903 181.235 94.8043C178.802 94.5411 176.358 94.4013 173.911 94.3855L167.15 86.3569Z" fill="#C4F3EE"/>
<path d="M180.673 146.783C180.673 146.783 154.474 151.431 144.755 141.712C144.755 141.712 143.769 143.387 142.282 146.165C141.854 146.964 141.029 147.505 140.53 148.473C140.077 149.352 138.911 150.433 138.417 151.431C138.02 152.233 138.657 153.282 138.244 154.149C133.267 164.589 127.452 179.314 128.698 189.038C129.502 195.309 131.163 209.9 132.911 225.572C133.048 226.797 131.941 228.37 132.079 229.604C132.208 230.768 133.582 231.592 133.711 232.759C133.797 233.533 132.838 234.323 132.924 235.097C133.018 235.946 134.157 236.778 134.251 237.623C136.646 259.263 138.84 279.466 138.84 279.466H151.094L153.406 233.324L151.516 216.505L155.953 182.489L162.08 214.814L162.869 233.007L169.344 280.311H180.673V234.518L181.518 232.139L180.673 229.088L181.518 225.801L180.673 222.221V146.783Z" fill="#030303"/>
<path d="M170.458 80.1082C168.789 82.3255 166.415 83.9082 163.726 84.5956C161.037 85.2831 158.194 85.0344 155.666 83.8904C153.137 82.7465 151.074 80.7755 149.815 78.3021C148.556 75.8287 148.177 73.0003 148.741 70.2828C149.304 67.5654 150.776 65.1208 152.915 63.3517C155.053 61.5826 157.73 60.5944 160.505 60.55C163.28 60.5056 165.987 61.4076 168.181 63.1073C170.375 64.8071 171.924 67.2034 172.574 69.9014C172.61 70.0478 172.639 70.1934 172.668 70.3445C173.011 72.0357 172.992 73.7804 172.611 75.4635C172.23 77.1466 171.496 78.7297 170.458 80.1082Z" fill="#FFB6B6"/>
<path d="M167.912 73.1392C167.653 71.8388 166.998 70.6506 166.036 69.7376C166.131 70.9838 165.958 72.2359 165.529 73.4097C162.317 73.6942 159.09 73.055 156.229 71.5673C154.074 70.1053 151.331 70.232 148.137 71.5673C148.137 70.0135 148.442 68.4749 149.037 67.0393C149.631 65.6038 150.503 64.2994 151.602 63.2007C152.7 62.102 154.005 61.2305 155.44 60.636C156.876 60.0414 158.415 59.7355 159.968 59.7357H162.081C165.219 59.7363 168.228 60.983 170.447 63.2018C172.665 65.4205 173.912 68.4296 173.913 71.5673C171.963 72.2667 169.955 72.7927 167.912 73.1392Z" fill="#030303"/>
<path d="M75.4788 223.938C94.2513 223.938 109.469 208.72 109.469 189.947C109.469 171.175 94.2513 155.957 75.4788 155.957C56.7064 155.957 41.4883 171.175 41.4883 189.947C41.4883 208.72 56.7064 223.938 75.4788 223.938Z" fill="#C4F3EE"/>
<path d="M292.084 67.9811C310.857 67.9811 326.075 52.763 326.075 33.9905C326.075 15.2181 310.857 0 292.084 0C273.312 0 258.094 15.2181 258.094 33.9905C258.094 52.763 273.312 67.9811 292.084 67.9811Z" fill="#C4F3EE"/>
<path d="M562.01 229.269C580.783 229.269 596.001 214.051 596.001 195.279C596.001 176.506 580.783 161.288 562.01 161.288C543.238 161.288 528.02 176.506 528.02 195.279C528.02 214.051 543.238 229.269 562.01 229.269Z" fill="#C4F3EE"/>
<path d="M353.402 37.6973V114.773C353.402 116.374 352.771 117.911 351.644 119.049C350.518 120.187 348.989 120.834 347.388 120.851C347.366 120.853 347.344 120.854 347.321 120.854H338.351C331.173 120.854 324.289 118.002 319.214 112.927C314.138 107.852 311.287 100.968 311.287 93.7904V37.6973C311.287 36.0847 311.928 34.538 313.068 33.3977C314.208 32.2574 315.755 31.6168 317.368 31.6168H321.003C319.319 36.5292 342.174 38.5973 343.428 31.6168H347.321C348.934 31.6168 350.481 32.2574 351.621 33.3977C352.761 34.5381 353.402 36.0847 353.402 37.6973Z" fill="#38D6C4"/>
<path d="M326.779 25.8533C326.78 25.642 326.864 25.4395 327.013 25.2901C327.162 25.1407 327.365 25.0567 327.576 25.0564H332.995C333.206 25.057 333.408 25.1413 333.557 25.2906C333.706 25.44 333.79 25.6424 333.79 25.8533C333.79 26.0643 333.706 26.2666 333.557 26.416C333.408 26.5654 333.206 26.6496 332.995 26.6502H327.576C327.365 26.6499 327.162 26.5659 327.013 26.4165C326.864 26.2671 326.78 26.0646 326.779 25.8533Z" fill="#2D2D2D"/>
<path d="M349.182 130.63H314.914C312.255 130.627 309.706 129.57 307.826 127.69C305.946 125.81 304.889 123.261 304.886 120.602V66.7233C304.698 66.5882 304.544 66.4101 304.439 66.2039C304.333 65.9977 304.278 65.7694 304.279 65.5377V60.119C304.278 59.8874 304.333 59.659 304.439 59.4529C304.544 59.2468 304.698 59.0688 304.886 58.9338V57.4794C304.698 57.3444 304.544 57.1664 304.439 56.9603C304.333 56.7541 304.278 56.5258 304.279 56.2942V50.8751C304.278 50.6435 304.333 50.4152 304.439 50.2091C304.544 50.003 304.698 49.825 304.886 49.6899V47.0614C304.654 46.9367 304.459 46.7511 304.324 46.5245C304.189 46.298 304.118 46.039 304.119 45.7753V40.3566C304.118 40.0928 304.189 39.8338 304.324 39.6072C304.459 39.3807 304.654 39.195 304.886 39.0702V31.8677C304.889 29.2091 305.946 26.6602 307.826 24.7803C309.706 22.9004 312.255 21.843 314.914 21.84H349.182C351.84 21.843 354.389 22.9004 356.269 24.7803C358.149 26.6603 359.207 29.2092 359.21 31.8678V47.5675C359.39 47.6804 359.539 47.8375 359.642 48.0238C359.746 48.2101 359.8 48.4196 359.8 48.6326V58.965C359.8 59.1781 359.746 59.3876 359.642 59.574C359.539 59.7603 359.39 59.9174 359.21 60.0305V120.602C359.207 123.261 358.149 125.81 356.269 127.69C354.389 129.57 351.84 130.627 349.182 130.63ZM314.914 23.1729C312.609 23.1755 310.399 24.0924 308.769 25.7224C307.138 27.3525 306.221 29.5625 306.219 31.8678V40.204L305.578 40.2287C305.544 40.2299 305.513 40.2438 305.489 40.2676C305.466 40.2914 305.453 40.3233 305.452 40.3566V45.7753C305.453 45.8086 305.466 45.8404 305.49 45.8642C305.513 45.8879 305.544 45.9019 305.578 45.9032L306.219 45.9276V50.6258L305.712 50.7508C305.684 50.7576 305.659 50.7734 305.641 50.7959C305.622 50.8184 305.612 50.8463 305.612 50.8751V56.2942C305.612 56.3231 305.622 56.3509 305.641 56.3734C305.659 56.3959 305.684 56.4117 305.712 56.4185L306.219 56.5435V59.8697L305.712 59.9946C305.684 60.0014 305.659 60.0173 305.641 60.0398C305.622 60.0623 305.612 60.0901 305.612 60.119V65.5377C305.612 65.5666 305.622 65.5945 305.64 65.6171C305.659 65.6396 305.684 65.6555 305.712 65.6623L306.219 65.7873V120.602C306.221 122.908 307.138 125.118 308.769 126.748C310.399 128.378 312.609 129.295 314.914 129.297H349.182C351.487 129.295 353.697 128.378 355.327 126.748C356.957 125.118 357.874 122.908 357.877 120.602V58.8892H358.467V48.7088H357.877V31.8677C357.874 29.5625 356.957 27.3525 355.327 25.7225C353.697 24.0924 351.487 23.1756 349.182 23.1729L314.914 23.1729Z" fill="#2D2D2D"/>
<path d="M336.023 26.6502C336.464 26.6502 336.82 26.2934 336.82 25.8533C336.82 25.4132 336.464 25.0564 336.023 25.0564C335.583 25.0564 335.227 25.4132 335.227 25.8533C335.227 26.2934 335.583 26.6502 336.023 26.6502Z" fill="#2D2D2D"/>
<path d="M162.676 180.218H73.5091C72.2428 180.215 71.0293 179.711 70.1339 178.815C69.2385 177.92 68.7339 176.707 68.7305 175.44V131.993C68.7337 130.727 69.2381 129.513 70.1335 128.618C71.0288 127.723 72.2422 127.218 73.5084 127.215H162.675C163.941 127.218 165.155 127.722 166.05 128.618C166.946 129.513 167.45 130.726 167.454 131.993V175.44C167.45 176.706 166.946 177.919 166.051 178.815C165.155 179.71 163.942 180.215 162.676 180.218Z" fill="white"/>
<path d="M162.676 180.218H73.5091C72.2428 180.215 71.0293 179.711 70.1339 178.815C69.2385 177.92 68.7339 176.707 68.7305 175.44V131.993C68.7337 130.727 69.2381 129.513 70.1335 128.618C71.0288 127.723 72.2422 127.218 73.5084 127.215H162.675C163.941 127.218 165.155 127.722 166.05 128.618C166.946 129.513 167.45 130.726 167.454 131.993V175.44C167.45 176.706 166.946 177.919 166.051 178.815C165.155 179.71 163.942 180.215 162.676 180.218ZM73.5091 128.548C72.596 128.55 71.721 128.914 71.0754 129.56C70.4298 130.206 70.066 131.081 70.0634 131.994V175.44C70.0661 176.353 70.43 177.228 71.0758 177.873C71.7215 178.519 72.5966 178.883 73.5097 178.885H162.674C163.588 178.883 164.463 178.519 165.108 177.873C165.754 177.227 166.118 176.352 166.121 175.439V131.993C166.118 131.08 165.754 130.205 165.108 129.559C164.462 128.914 163.587 128.55 162.674 128.548L73.5091 128.548Z" fill="#2D2D2D"/>
<path d="M122.87 173.798C105.284 173.798 86.947 173.63 80.1053 173.521C79.2052 173.502 78.3479 173.132 77.7166 172.49C77.0854 171.848 76.73 170.985 76.7266 170.085V134.12C76.7269 133.798 76.8549 133.489 77.0826 133.26C77.3103 133.032 77.6191 132.903 77.9416 132.902H158.236C158.559 132.903 158.868 133.031 159.096 133.258C159.324 133.486 159.453 133.795 159.454 134.117V158.518C159.439 162.501 157.864 166.32 155.066 169.155C152.267 171.99 148.47 173.615 144.487 173.682C138.111 173.765 130.56 173.798 122.87 173.798Z" fill="#38D6C4"/>
<path d="M153.471 156.276H80.9178C80.3103 156.275 79.718 156.086 79.2215 155.736C78.725 155.386 78.3483 154.892 78.1425 154.32L69.9306 131.282C69.7724 130.838 69.7231 130.362 69.7868 129.895C69.8506 129.427 70.0255 128.982 70.297 128.596C70.5685 128.211 70.9286 127.896 71.347 127.678C71.7655 127.46 72.23 127.346 72.7017 127.345L163.391 127.219C163.822 127.219 164.248 127.313 164.639 127.495C165.03 127.677 165.376 127.942 165.653 128.273C165.93 128.603 166.131 128.99 166.242 129.407C166.354 129.823 166.372 130.259 166.297 130.683L166.367 130.713L166.106 131.321L166.104 131.327L156.176 154.49C155.95 155.021 155.573 155.473 155.092 155.79C154.611 156.108 154.047 156.277 153.471 156.276ZM163.395 128.552L72.7043 128.678C72.4459 128.679 72.1914 128.741 71.9622 128.86C71.7329 128.98 71.5357 129.152 71.3869 129.363C71.2382 129.575 71.1423 129.819 71.1074 130.075C71.0724 130.331 71.0994 130.591 71.1861 130.835L79.3977 153.872C79.5106 154.185 79.7171 154.456 79.9892 154.647C80.2613 154.839 80.5859 154.942 80.9188 154.943H153.471C153.786 154.944 154.095 154.851 154.358 154.677C154.621 154.504 154.827 154.256 154.951 153.966L164.879 130.801C164.984 130.556 165.027 130.288 165.003 130.022C164.979 129.756 164.89 129.5 164.743 129.277C164.596 129.054 164.396 128.871 164.161 128.745C163.925 128.618 163.663 128.552 163.395 128.552Z" fill="#2D2D2D"/>
<path d="M117.956 161.291C121.094 161.291 123.638 158.748 123.638 155.61C123.638 152.473 121.094 149.929 117.956 149.929C114.819 149.929 112.275 152.473 112.275 155.61C112.275 158.748 114.819 161.291 117.956 161.291Z" fill="white"/>
<path d="M332.562 111.972C335.7 111.972 338.243 109.428 338.243 106.291C338.243 103.153 335.7 100.609 332.562 100.609C329.424 100.609 326.881 103.153 326.881 106.291C326.881 109.428 329.424 111.972 332.562 111.972Z" fill="white"/>
<path d="M547.434 188.694L532.258 173.712C531.52 172.976 530.643 172.394 529.679 171.999C528.715 171.603 527.682 171.401 526.64 171.406H526.587C525.536 171.409 524.497 171.62 523.53 172.027C522.562 172.434 521.684 173.03 520.948 173.778C517.555 177.212 515.625 181.828 515.564 186.655C515.503 191.483 517.316 196.146 520.621 199.664C520.781 199.838 520.948 200.004 521.115 200.171C522.038 201.088 523.057 201.904 524.154 202.604C527.154 204.542 530.652 205.568 534.224 205.556H534.338C536.789 205.548 539.215 205.053 541.474 204.102C543.734 203.15 545.782 201.759 547.501 200.011C548.99 198.5 549.819 196.46 549.807 194.339C549.794 192.217 548.941 190.187 547.434 188.694ZM546.554 199.071C543.737 201.91 540.027 203.69 536.05 204.113C532.073 204.535 528.071 203.574 524.72 201.391C523.762 200.756 522.867 200.031 522.048 199.224C518.778 195.995 516.925 191.599 516.896 187.003C516.867 182.407 518.665 177.988 521.894 174.718C522.508 174.092 523.24 173.595 524.048 173.255C524.856 172.916 525.723 172.74 526.6 172.739H526.64C527.508 172.736 528.367 172.903 529.17 173.233C529.973 173.562 530.703 174.046 531.319 174.658L546.494 189.647C547.751 190.89 548.463 192.58 548.474 194.347C548.485 196.114 547.795 197.813 546.554 199.071Z" fill="#2D2D2D"/>
<path d="M497.64 139.521L482.464 124.532C480.971 123.05 478.95 122.221 476.846 122.226H476.799C475.748 122.23 474.708 122.443 473.739 122.851C472.77 123.259 471.891 123.856 471.154 124.605C468.349 127.454 466.53 131.127 465.964 135.085C465.398 139.043 466.114 143.078 468.008 146.599L468.015 146.606C468.796 148.046 469.767 149.375 470.901 150.558C471.028 150.705 471.174 150.851 471.321 150.998C474.806 154.457 479.52 156.394 484.431 156.383H484.55C487.002 156.373 489.428 155.877 491.687 154.924C493.947 153.971 495.995 152.58 497.713 150.831C498.451 150.084 499.035 149.198 499.43 148.225C499.826 147.253 500.026 146.211 500.019 145.161C500.013 144.111 499.799 143.072 499.391 142.104C498.983 141.137 498.388 140.259 497.64 139.521ZM496.76 149.898C495.165 151.521 493.264 152.812 491.167 153.696C489.071 154.58 486.819 155.041 484.544 155.05H484.431C481.013 155.049 477.672 154.037 474.828 152.142C471.984 150.247 469.764 147.553 468.447 144.4C467.13 141.246 466.775 137.774 467.426 134.419C468.077 131.064 469.706 127.977 472.107 125.545C473.35 124.289 475.04 123.577 476.807 123.566C478.574 123.554 480.273 124.245 481.531 125.485L496.707 140.467C497.963 141.712 498.673 143.404 498.683 145.172C498.693 146.94 498.002 148.639 496.76 149.898Z" fill="#2D2D2D"/>
<path d="M548.404 193.405L531.673 176.88C530.576 175.799 529.094 175.197 527.554 175.207C526.014 175.216 524.54 175.836 523.457 176.931C522.101 178.3 521.029 179.924 520.301 181.708C519.573 183.492 519.204 185.402 519.215 187.329C519.226 189.256 519.617 191.162 520.364 192.937C521.112 194.713 522.203 196.324 523.574 197.678C524.945 199.032 526.569 200.103 528.354 200.829C530.139 201.554 532.05 201.921 533.977 201.908C535.903 201.895 537.809 201.503 539.584 200.753C541.359 200.003 542.969 198.91 544.321 197.538L548.404 193.405Z" fill="#38D6C4"/>
<path d="M498.615 144.229L481.884 127.704C480.787 126.623 479.305 126.021 477.765 126.031C476.225 126.041 474.751 126.661 473.668 127.755C472.312 129.125 471.24 130.748 470.512 132.532C469.784 134.316 469.415 136.226 469.426 138.153C469.437 140.08 469.827 141.986 470.575 143.762C471.323 145.538 472.414 147.149 473.785 148.503C475.156 149.857 476.78 150.927 478.565 151.653C480.35 152.379 482.261 152.746 484.188 152.733C486.114 152.72 488.02 152.327 489.795 151.577C491.57 150.827 493.179 149.735 494.532 148.362L498.615 144.229Z" fill="#38D6C4"/>
<path d="M530.018 203.697L529.618 204.75C527.739 204.036 525.917 203.321 524.153 202.604C492.908 189.854 477.992 174.931 468.015 146.606L468.009 146.599C467.535 145.266 467.075 143.902 466.629 142.507L467.682 142.167C468.034 143.509 468.549 144.802 469.215 146.019C469.761 147.572 470.323 149.085 470.901 150.558C480.278 174.465 494.108 188.128 520.621 199.664C521.953 200.244 523.32 200.82 524.719 201.391C526.345 202.449 528.135 203.229 530.018 203.697Z" fill="#2D2D2D"/>
<path d="M482.187 155.17L481.25 156.118L515.866 190.308L516.803 189.359L482.187 155.17Z" fill="#2D2D2D"/>
<path d="M189.124 126.841L189.141 104.939L176.267 106.089L180.81 119.903L164.317 144.905C163.285 145.137 162.344 145.663 161.606 146.421C160.869 147.178 160.368 148.134 160.164 149.171C159.961 150.208 160.063 151.282 160.46 152.262C160.856 153.242 161.529 154.086 162.396 154.69C163.264 155.294 164.288 155.633 165.345 155.665C166.401 155.697 167.444 155.421 168.347 154.87C169.249 154.32 169.971 153.518 170.426 152.564C170.881 151.61 171.049 150.544 170.908 149.497L189.124 126.841Z" fill="#FFB6B6"/>
</g>
<defs>
<clipPath id="clip0_463_2293">
<rect width="596" height="298.772" fill="white"/>
</clipPath>
</defs>
</svg>
