<svg width="40" height="40" viewBox="0 0 40 40" fill="none" xmlns="http://www.w3.org/2000/svg">
<rect width="40" height="40" rx="8" fill="#030303"/>
<g clip-path="url(#clip0_676_3636)">
<path d="M10.6258 14.1159C10.6662 14.1158 10.7065 14.1156 10.7481 14.1155C10.8822 14.1153 11.0163 14.1161 11.1503 14.1168C11.2469 14.1169 11.3435 14.1168 11.4401 14.1168C11.7015 14.1167 11.9628 14.1176 12.2242 14.1185C12.4976 14.1194 12.7711 14.1195 13.0445 14.1197C13.562 14.1201 14.0794 14.1213 14.5969 14.1227C15.1861 14.1242 15.7754 14.125 16.3646 14.1257C17.5764 14.1272 18.7882 14.1297 20 14.1328C19.9421 14.2513 19.8809 14.3627 19.813 14.4763C19.7766 14.5375 19.7403 14.5988 19.7041 14.6601C19.6847 14.6928 19.6652 14.7254 19.6452 14.759C19.5278 14.9651 19.4612 15.1469 19.4164 15.3791C19.3813 15.5526 19.3438 15.6662 19.25 15.8203C19.0124 15.9595 18.7305 15.9934 18.4623 16.0367C17.7471 16.1614 16.9716 16.7578 16.5514 17.3403C16.049 18.0785 15.7838 18.8895 15.7714 19.7832C15.77 19.8497 15.7687 19.9162 15.7673 19.9827C15.7654 20.0853 15.7637 20.1878 15.7624 20.2903C15.7475 21.4289 15.7475 21.4289 15.4297 21.8554C15.1485 22.2681 15.0736 22.6325 15.125 23.1328C15.2074 23.5441 15.4189 23.8449 15.7344 24.1172C16.1449 24.3787 16.5171 24.4381 17 24.3984C17.2589 24.3334 17.4716 24.211 17.6943 24.0674C18.1556 23.784 18.6816 23.7703 19.2085 23.7665C20.4939 23.7551 21.6326 23.5258 22.5942 22.6058C23.1438 22.0318 23.4924 21.286 23.6108 20.5047C23.6562 20.3672 23.6562 20.3672 23.7617 20.2831C23.8896 20.227 24.0144 20.1835 24.1484 20.1445C25.0859 19.8397 25.7203 19.1961 26.316 18.4387C26.4503 18.2687 26.5869 18.1006 26.7236 17.9326C26.7632 17.8839 26.7632 17.8839 26.8036 17.8343C27.0548 17.5254 27.3069 17.2172 27.5595 16.9094C27.595 16.8661 27.6304 16.8229 27.667 16.7783C27.7014 16.7364 27.7358 16.6944 27.7712 16.6512C27.9087 16.4819 28.0437 16.3107 28.1782 16.1391C28.2019 16.1112 28.2256 16.0834 28.25 16.0547C28.2655 16.0547 28.2809 16.0547 28.2969 16.0547C28.2969 19.1175 28.2969 22.1803 28.2969 25.3359C21.8155 25.3359 15.3341 25.3359 8.65625 25.3359C8.65625 15.2432 8.65625 15.2432 9.2182 14.6398C9.61716 14.2796 10.0945 14.11 10.6258 14.1159Z" fill="white"/>
<path d="M8.65625 26.6953C15.1377 26.6953 21.6191 26.6953 28.2969 26.6953C28.2969 28.1268 28.2969 28.1268 27.7327 28.717C27.3922 29.0431 26.9871 29.2327 26.5121 29.2322C26.4641 29.2323 26.4162 29.2323 26.3667 29.2324C26.3144 29.2322 26.262 29.2321 26.2081 29.2319C26.125 29.2319 26.125 29.2319 26.0403 29.2319C25.8888 29.2319 25.7372 29.2316 25.5857 29.2313C25.4272 29.231 25.2687 29.231 25.1103 29.2309C24.8103 29.2308 24.5103 29.2304 24.2103 29.2299C23.8688 29.2294 23.5272 29.2292 23.1857 29.2289C22.4832 29.2284 21.7806 29.2276 21.0781 29.2266C21.0781 29.7525 21.0781 30.2784 21.0781 30.8203C21.5416 30.8111 21.5416 30.8111 22.005 30.7992C22.5398 30.7938 22.5398 30.7938 22.7361 30.9272C22.9152 31.1124 22.993 31.2685 23.0042 31.5273C22.9871 31.7572 22.9118 31.9113 22.7656 32.0859C22.5751 32.2284 22.4343 32.2443 22.1989 32.2447C22.1659 32.245 22.133 32.2452 22.0991 32.2455C21.9891 32.2462 21.879 32.2458 21.769 32.2455C21.69 32.2458 21.611 32.2461 21.532 32.2465C21.3175 32.2473 21.1031 32.2473 20.8887 32.247C20.7096 32.2469 20.5306 32.2471 20.3516 32.2474C19.9292 32.2481 19.5068 32.248 19.0843 32.2475C18.6486 32.2469 18.213 32.2476 17.7773 32.2488C17.4031 32.2499 17.0289 32.2502 16.6548 32.2499C16.4313 32.2498 16.2079 32.2499 15.9845 32.2507C15.7743 32.2514 15.5643 32.2512 15.3541 32.2503C15.2771 32.2502 15.2 32.2503 15.123 32.2508C15.0176 32.2514 14.9124 32.2509 14.8071 32.2501C14.7482 32.25 14.6893 32.25 14.6286 32.25C14.4123 32.2183 14.2641 32.1251 14.119 31.9622C14.0006 31.7536 13.954 31.5746 14 31.3359C14.0928 31.0794 14.2312 30.9564 14.4688 30.8203C14.6298 30.799 14.6298 30.799 14.8038 30.802C14.8884 30.8027 14.8884 30.8027 14.9747 30.8034C15.0456 30.8051 15.1165 30.8068 15.1895 30.8086C15.5288 30.8144 15.5288 30.8144 15.875 30.8203C15.875 30.2944 15.875 29.7684 15.875 29.2266C15.7071 29.2273 15.5391 29.228 15.3661 29.2288C14.8104 29.2311 14.2547 29.2327 13.6991 29.2338C13.3622 29.2346 13.0254 29.2356 12.6886 29.2372C12.3949 29.2386 12.1012 29.2395 11.8074 29.2398C11.652 29.24 11.4967 29.2405 11.3413 29.2414C11.1674 29.2425 10.9935 29.2426 10.8196 29.2425C10.7687 29.243 10.7177 29.2435 10.6653 29.2441C10.0885 29.2417 9.58702 29.0732 9.1684 28.6624C8.6629 28.0582 8.65625 27.4576 8.65625 26.6953Z" fill="white"/>
<path d="M30.5062 8.30924C30.8434 8.53281 31.1486 8.80532 31.2764 9.1984C31.3646 9.65631 31.3358 10.085 31.1017 10.4922C30.9915 10.6523 30.8711 10.7949 30.7375 10.9359C30.6375 11.0425 30.5467 11.1531 30.4561 11.2677C30.2548 11.522 30.0495 11.7728 29.8438 12.0235C29.6009 12.3198 29.3587 12.6167 29.1172 12.9142C28.8431 13.2517 28.5681 13.5883 28.2925 13.9245C28.0824 14.181 27.873 14.438 27.6641 14.6954C26.9411 15.5855 26.9411 15.5855 26.6563 15.9142C26.4605 15.8374 26.3298 15.6939 26.185 15.5473C26.1571 15.5194 26.1291 15.4915 26.1004 15.4627C26.0084 15.3706 25.9167 15.2782 25.825 15.1858C25.7611 15.1218 25.6973 15.0578 25.6334 14.9938C25.4655 14.8256 25.2979 14.6571 25.1304 14.4885C24.9593 14.3164 24.788 14.1447 24.6166 13.9729C24.2806 13.6359 23.9449 13.2985 23.6094 12.961C23.679 12.8139 23.741 12.729 23.8685 12.6265C23.9015 12.5997 23.9345 12.5728 23.9685 12.5451C24.0213 12.503 24.0213 12.503 24.0752 12.4601C24.1112 12.4309 24.1473 12.4017 24.1844 12.3716C24.2566 12.3132 24.3288 12.2549 24.4011 12.1968C24.5266 12.0959 24.651 11.9939 24.7754 11.8917C24.8555 11.8263 24.9355 11.7608 25.0156 11.6954C25.1016 11.6251 25.1875 11.5548 25.2734 11.4845C26.3047 10.6407 26.3047 10.6407 26.4345 10.5345C26.5174 10.4667 26.6003 10.3988 26.6832 10.3309C26.9718 10.0945 27.2612 9.85903 27.5509 9.62384C27.7344 9.47482 27.9177 9.32557 28.1006 9.17588C28.141 9.14294 28.1813 9.11001 28.2229 9.07608C28.3069 9.00698 28.3904 8.93723 28.4734 8.86698C29.0346 8.39589 29.7544 7.95672 30.5062 8.30924Z" fill="white"/>
<path d="M21.4001 17.7062C21.992 18.213 22.34 18.8797 22.401 19.6571C22.4234 20.3978 22.1739 21.0774 21.6962 21.6395C21.1463 22.2227 20.4332 22.4111 19.6516 22.4351C19.5327 22.4374 19.4138 22.4395 19.2949 22.4414C18.4534 22.4557 17.5983 22.4868 16.8985 23.0236C16.7838 23.1073 16.7169 23.1078 16.578 23.0864C16.4931 23.0308 16.4931 23.0308 16.4374 22.9458C16.4123 22.7381 16.47 22.641 16.5898 22.4741C17.0021 21.8535 17.0577 21.15 17.0702 20.4234C17.0871 19.4478 17.167 18.5843 17.8612 17.8482C18.8362 16.9313 20.3542 16.8966 21.4001 17.7062Z" fill="white"/>
<path d="M22.4844 13.7578C22.6149 13.8174 22.7108 13.8788 22.8119 13.9803C22.8382 14.0064 22.8645 14.0326 22.8915 14.0596C22.9198 14.0882 22.948 14.1167 22.9772 14.1462C23.0074 14.1764 23.0376 14.2066 23.0687 14.2377C23.1683 14.3374 23.2676 14.4374 23.3669 14.5375C23.436 14.6067 23.5051 14.676 23.5742 14.7452C23.756 14.9273 23.9375 15.1097 24.1189 15.2921C24.3041 15.4783 24.4896 15.6642 24.675 15.8502C25.0388 16.215 25.4023 16.58 25.7656 16.9453C25.6794 17.1262 25.5672 17.278 25.4434 17.4346C25.4207 17.4632 25.3981 17.4919 25.3747 17.5214C24.9119 18.0993 24.4359 18.691 23.7031 18.9141C23.6722 18.9141 23.6412 18.9141 23.6094 18.9141C23.5963 18.8704 23.5832 18.8267 23.5696 18.7817C23.3784 18.1652 23.1157 17.5566 22.6389 17.1039C22.5781 17.0391 22.5781 17.0391 22.5781 16.9453C22.55 16.9324 22.5219 16.9195 22.493 16.9061C22.3906 16.8516 22.3906 16.8516 22.2529 16.7285C21.7591 16.3014 21.2251 16.0965 20.6094 15.9141C20.8541 15.1361 21.3213 14.694 21.9532 14.2077C22.1372 14.0656 22.3124 13.9143 22.4844 13.7578Z" fill="white"/>
</g>
<defs>
<clipPath id="clip0_676_3636">
<rect width="24" height="24" fill="white" transform="translate(8 8.22656)"/>
</clipPath>
</defs>
</svg>
