<svg width="626" height="130" viewBox="0 0 626 130" fill="none" xmlns="http://www.w3.org/2000/svg">
<path d="M76 32L50 44.5L25.5 0H205L146 82L40.5 130L104 70L120 68.5L154 32L0 96.5C32 73.7 142.667 25.3333 194 4L136.5 18.5L68.5 22.5L76 32Z" fill="#38D6C4"/>
<path d="M262.881 108H232.459V22.1818H263.132C271.764 22.1818 279.195 23.8999 285.425 27.3359C291.654 30.7441 296.445 35.6468 299.798 42.044C303.178 48.4413 304.868 56.0956 304.868 65.0071C304.868 73.9465 303.178 81.6288 299.798 88.054C296.445 94.4792 291.626 99.4098 285.341 102.846C279.083 106.282 271.597 108 262.881 108ZM250.603 92.4538H262.126C267.49 92.4538 272.002 91.504 275.661 89.6044C279.349 87.6768 282.114 84.7017 283.958 80.679C285.83 76.6283 286.766 71.4044 286.766 65.0071C286.766 58.6657 285.83 53.4837 283.958 49.4609C282.114 45.4382 279.363 42.477 275.703 40.5774C272.044 38.6778 267.532 37.728 262.168 37.728H250.603V92.4538ZM318.308 108V22.1818H376.135V37.1413H336.453V57.5902H373.16V72.5497H336.453V93.0405H376.303V108H318.308ZM406.065 22.1818L426.807 87.3835H427.603L448.387 22.1818H468.501L438.917 108H415.535L385.909 22.1818H406.065ZM478.83 108V22.1818H496.974V93.0405H533.765V108H478.83ZM617.562 22.1818V108H601.89L564.554 53.9865H563.925V108H545.781V22.1818H561.704L598.747 76.1534H599.501V22.1818H617.562Z" fill="#030303"/>
</svg>
