<svg width="203" height="42" viewBox="0 0 203 42" fill="none" xmlns="http://www.w3.org/2000/svg">
<path d="M24.5538 10.3385L16.1538 14.3769L8.23846 0H66.2308L47.1692 26.4923L13.0846 42L33.6 22.6154L38.7692 22.1308L49.7538 10.3385L0 31.1769C10.3385 23.8108 46.0923 8.18462 62.6769 1.29231L44.1 5.97692L22.1308 7.26923L24.5538 10.3385Z" fill="#38D6C4"/>
<path d="M84.9298 35H75.1012V7.27412H85.011C87.7998 7.27412 90.2006 7.82918 92.2132 8.9393C94.2259 10.0404 95.7737 11.6243 96.8568 13.6911C97.9488 15.758 98.4949 18.2309 98.4949 21.11C98.4949 23.9981 97.9488 26.4801 96.8568 28.5559C95.7737 30.6317 94.2169 32.2247 92.1862 33.3348C90.1645 34.4449 87.7457 35 84.9298 35ZM80.9631 29.9774H84.6861C86.419 29.9774 87.8766 29.6705 89.0589 29.0568C90.2502 28.4341 91.1437 27.4729 91.7394 26.1732C92.3441 24.8645 92.6465 23.1768 92.6465 21.11C92.6465 19.0612 92.3441 17.387 91.7394 16.0874C91.1437 14.7877 90.2547 13.831 89.0724 13.2173C87.8901 12.6036 86.4325 12.2967 84.6996 12.2967H80.9631V29.9774ZM102.837 35V7.27412H121.52V12.1072H108.699V18.7138H120.558V23.5468H108.699V30.1669H121.574V35H102.837ZM131.189 7.27412L137.891 28.3393H138.148L144.863 7.27412H151.361L141.803 35H134.249L124.677 7.27412H131.189ZM154.698 35V7.27412H160.56V30.1669H172.446V35H154.698ZM199.519 7.27412V35H194.456L182.393 17.5495H182.19V35H176.328V7.27412H181.473L193.44 24.7111H193.684V7.27412H199.519Z" fill="white"/>
</svg>
