<svg width="40" height="40" viewBox="0 0 40 40" fill="none" xmlns="http://www.w3.org/2000/svg">
<rect width="40" height="40" rx="8" fill="#030303"/>
<g clip-path="url(#clip0_591_1342)">
<path d="M27.2291 23.4867L24.6891 23.1967C24.0791 23.1267 23.4791 23.3367 23.0491 23.7667L21.2091 25.6067C18.3791 24.1667 16.0591 21.8567 14.6191 19.0167L16.4691 17.1667C16.8991 16.7367 17.1091 16.1367 17.0391 15.5267L16.7491 13.0067C16.6291 11.9967 15.7791 11.2367 14.7591 11.2367H13.0291C11.8991 11.2367 10.9591 12.1767 11.0291 13.3067C11.5591 21.8467 18.3891 28.6667 26.9191 29.1967C28.0491 29.2667 28.9891 28.3267 28.9891 27.1967V25.4667C28.9991 24.4567 28.2391 23.6067 27.2291 23.4867Z" fill="white"/>
</g>
<defs>
<clipPath id="clip0_591_1342">
<rect width="24" height="24" fill="white" transform="translate(8 8.22668)"/>
</clipPath>
</defs>
</svg>
