<svg width="18" height="18" viewBox="0 0 18 18" fill="none" xmlns="http://www.w3.org/2000/svg">
<path d="M6.80691 2.3839C8.36854 1.85833 10.0666 1.87279 11.6187 2.42486C12.4711 2.73767 13.2521 3.21246 13.9168 3.82196C13.6909 4.05887 13.4527 4.28028 13.2223 4.51055C12.7841 4.93935 12.3464 5.36667 11.9089 5.79252C11.4729 5.38372 10.9454 5.08045 10.3686 4.90687C9.63051 4.68839 8.84526 4.67343 8.09904 4.86364C7.35282 5.05384 6.67446 5.44187 6.13839 5.98514C5.67045 6.45181 5.31608 7.01605 5.10172 7.63576L2.76074 5.85894C3.59867 4.22998 5.04949 2.98395 6.80691 2.3839Z" fill="#E33629"/>
<path d="M2.14003 7.6191C2.26585 7.00778 2.47475 6.41576 2.76112 5.85889L5.1021 7.64014C4.79586 8.52423 4.79586 9.48271 5.1021 10.3668C4.32215 10.9572 3.54183 11.5506 2.76112 12.1469C2.04421 10.748 1.82556 9.15403 2.14003 7.6191Z" fill="#F8BD00"/>
<path d="M9.1421 7.69116H15.8635C16.0934 8.92767 16.0312 10.1994 15.6817 11.4086C15.3601 12.5207 14.7355 13.5257 13.8749 14.3158C13.1194 13.7379 12.3605 13.1644 11.605 12.5866C11.9796 12.3389 12.2993 12.0196 12.5449 11.6479C12.7906 11.2762 12.9572 10.8597 13.0347 10.4234H9.1421C9.14097 9.51337 9.1421 8.60227 9.1421 7.69116Z" fill="#587DBD"/>
<path d="M2.75977 12.147C3.54047 11.5565 4.32079 10.9632 5.10074 10.3668C5.40249 11.235 5.97638 11.9874 6.74044 12.5167C7.217 12.8469 7.75851 13.0761 8.33045 13.1898C8.89402 13.2925 9.47208 13.2925 10.0356 13.1898C10.5976 13.0966 11.1334 12.8892 11.6087 12.5809C12.3642 13.1588 13.1231 13.7323 13.8785 14.3101C13.0518 15.0471 12.044 15.561 10.9537 15.8013C9.7504 16.0787 8.49637 16.0654 7.29943 15.7626C6.35276 15.5148 5.46851 15.078 4.70211 14.4795C3.89091 13.8482 3.22836 13.0525 2.75977 12.147Z" fill="#319F43"/>
</svg>
