<svg width="14" height="14" viewBox="0 0 14 14" fill="none" xmlns="http://www.w3.org/2000/svg">
<g clip-path="url(#clip0_642_425)">
<path d="M11.3511 4.66672L11.812 3.64589L12.8328 3.18505C13.0603 3.08005 13.0603 2.75922 12.8328 2.65422L11.812 2.19339L11.3511 1.16672C11.2461 0.939219 10.9253 0.939219 10.8203 1.16672L10.3595 2.18755L9.33279 2.64839C9.10529 2.75339 9.10529 3.07422 9.33279 3.17922L10.3536 3.64005L10.8145 4.66672C10.9195 4.89422 11.2461 4.89422 11.3511 4.66672ZM6.70779 5.54172L5.78029 3.50005C5.57612 3.04505 4.92279 3.04505 4.71862 3.50005L3.79112 5.54172L1.74945 6.46922C1.29445 6.67922 1.29445 7.32672 1.74945 7.53089L3.79112 8.45839L4.71862 10.5001C4.92862 10.9551 5.57612 10.9551 5.78029 10.5001L6.70779 8.45839L8.74945 7.53089C9.20445 7.32089 9.20445 6.67339 8.74945 6.46922L6.70779 5.54172ZM10.8145 9.33339L10.3536 10.3542L9.33279 10.8151C9.10529 10.9201 9.10529 11.2409 9.33279 11.3459L10.3536 11.8067L10.8145 12.8334C10.9195 13.0609 11.2403 13.0609 11.3453 12.8334L11.8061 11.8126L12.8328 11.3517C13.0603 11.2467 13.0603 10.9259 12.8328 10.8209L11.812 10.3601L11.3511 9.33339C11.2461 9.10589 10.9195 9.10589 10.8145 9.33339Z" fill="white"/>
</g>
<defs>
<clipPath id="clip0_642_425">
<rect width="14" height="14" fill="white"/>
</clipPath>
</defs>
</svg>
